<svg xmlns="http://www.w3.org/2000/svg" xmlns:xlink="http://www.w3.org/1999/xlink" width="1600" zoomAndPan="magnify" viewBox="0 0 1200 412.499988" height="550" preserveAspectRatio="xMidYMid meet" version="1.0"><defs><clipPath id="946864ff7e"><path d="M 777 0 L 1194.636719 0 L 1194.636719 411.101562 L 777 411.101562 Z M 777 0 " clip-rule="nonzero"/></clipPath><clipPath id="a44fa15635"><path d="M 2 0 L 420 0 L 420 411.101562 L 2 411.101562 Z M 2 0 " clip-rule="nonzero"/></clipPath><clipPath id="27d21628ac"><rect x="0" width="1195" y="0" height="412"/></clipPath></defs><g transform="matrix(1, 0, 0, 1, 2, 0)"><g clip-path="url(#27d21628ac)"><path fill="#420a0b" d="M 343.347656 359.25 C 345.390625 357.695312 347.972656 356.859375 349.667969 354.882812 C 354.292969 349.539062 360.054688 346.097656 366.886719 344.496094 C 368.210938 344.171875 368.515625 343.660156 368.492188 342.449219 C 368.445312 339.640625 368.535156 336.804688 368.535156 333.992188 C 368.535156 322.023438 368.535156 310.035156 368.535156 298.066406 C 368.535156 297.183594 368.628906 296.277344 368.722656 295.394531 C 368.769531 294.929688 369.234375 294.746094 369.558594 294.789062 C 369.886719 294.8125 370.328125 295.09375 370.441406 295.371094 C 370.628906 295.835938 370.628906 296.371094 370.628906 296.882812 C 370.628906 311.3125 370.652344 325.765625 370.628906 340.195312 C 370.628906 343.683594 370.582031 343.683594 373.835938 343.519531 C 374.742188 343.472656 375.625 343.472656 376.53125 343.496094 C 386.964844 343.730469 396.003906 347.726562 404.324219 353.722656 C 405.390625 354.488281 406.25 355.742188 407.972656 355.789062 C 407.972656 344.378906 407.972656 333.179688 407.972656 321.980469 C 407.972656 318.121094 407.972656 314.242188 408.019531 310.359375 C 408.019531 309.871094 408.085938 309.289062 408.738281 309.152344 C 409.621094 308.941406 409.832031 309.664062 410.015625 310.242188 C 410.203125 310.847656 410.25 311.5 410.25 312.148438 C 410.25 322.953125 410.15625 333.761719 410.25 344.566406 C 410.25 348.328125 409.921875 352.09375 410.457031 356.160156 C 413.410156 353.558594 416.105469 351.210938 418.777344 348.863281 C 440.503906 329.808594 465.226562 316.285156 493.207031 308.894531 C 495.34375 308.339844 497.320312 307.570312 499.203125 306.386719 C 510.125 299.507812 521.625 293.859375 533.753906 289.398438 C 556.367188 281.105469 579.625 278.058594 603.5625 280.476562 C 620.316406 282.171875 636.441406 286.402344 652.011719 292.863281 C 653.125 293.328125 654.148438 294.234375 655.425781 293.859375 C 656.101562 287.726562 656.707031 281.707031 657.449219 275.691406 C 659.238281 261.144531 661.304688 246.644531 665.746094 232.605469 C 667 228.65625 668.488281 224.824219 671.042969 221.523438 C 674.597656 216.96875 678.269531 217.132812 681.617188 221.824219 C 682.058594 222.453125 682.453125 223.125 682.847656 223.800781 C 685.03125 227.472656 686.402344 231.515625 687.566406 235.582031 C 692.140625 251.453125 694.1875 267.765625 695.953125 284.125 C 697.136719 295 697.976562 305.898438 698.417969 316.820312 C 698.484375 318.285156 698.996094 319.214844 700.089844 320.027344 C 702.179688 321.535156 704.226562 323.09375 706.316406 324.582031 C 714.472656 330.484375 721.769531 337.386719 729.578125 343.683594 C 746.9375 357.671875 766.175781 368.453125 786.394531 377.5625 C 804.9375 385.929688 824.039062 392.78125 843.582031 398.5 C 856.664062 402.332031 869.792969 405.890625 883.109375 408.816406 C 885.292969 409.304688 887.570312 409.5625 890.3125 410.886719 C 886.523438 410.863281 883.480469 411.257812 880.457031 410.582031 C 868.398438 407.910156 856.523438 404.542969 844.625 401.21875 C 831.472656 397.546875 818.136719 395.757812 804.566406 398.683594 C 799.289062 399.824219 794.039062 401.171875 789.34375 404.03125 C 788.136719 404.75 787.019531 405.539062 786.277344 406.863281 C 785.371094 408.515625 787.507812 409.28125 787.183594 410.792969 C 784.140625 411.210938 781.492188 410.675781 778.703125 409.234375 C 769.964844 404.773438 760.714844 401.683594 751.117188 399.589844 C 738.871094 396.917969 726.417969 396.011719 713.914062 395.898438 C 709.6875 395.851562 705.433594 396.292969 701.203125 396.476562 C 699.765625 396.546875 699.253906 397.222656 699.207031 398.664062 C 699.089844 402.171875 699.042969 405.609375 701.460938 408.539062 C 701.925781 409.117188 702.390625 409.746094 702.367188 410.445312 C 701.136719 412 700.113281 409.675781 698.882812 410.398438 C 697.183594 411.417969 696.464844 410.722656 696.765625 408.957031 C 697.324219 405.773438 696.070312 403.238281 694.28125 400.777344 C 692.769531 398.683594 691.328125 396.546875 690.144531 394.269531 C 687.496094 389.273438 683.171875 386.484375 678.015625 384.765625 C 671.089844 382.464844 664.117188 382.511719 657.078125 384.417969 C 655.242188 384.90625 654.195312 385.488281 654.472656 387.742188 C 654.730469 389.878906 654.429688 392.109375 654.195312 394.269531 C 654.007812 396.035156 654.3125 396.988281 656.332031 397.429688 C 662.652344 398.800781 667.882812 402.265625 672.554688 406.679688 C 673.761719 407.816406 674.878906 408.980469 675.25 410.652344 C 673.644531 411.328125 672.949219 410.328125 672.019531 409.328125 C 667.625 404.609375 662.375 401.265625 656.148438 399.523438 C 654.335938 399.011719 653.359375 399.242188 653.035156 401.472656 C 652.617188 404.261719 651.523438 406.933594 650.035156 409.375 C 649.339844 410.535156 648.550781 411.441406 646.96875 410.421875 C 647.96875 408.027344 649.617188 405.957031 650.292969 403.449219 C 652.453125 395.246094 652.894531 386.972656 651.429688 378.632812 C 649.269531 366.246094 645.0625 354.535156 639.394531 343.355469 C 637.929688 340.476562 636.023438 337.941406 633.121094 336.246094 C 629.679688 334.226562 626.378906 331.96875 622.964844 329.925781 C 599.449219 315.984375 574.097656 307.851562 546.816406 305.921875 C 531.570312 304.851562 516.46875 306.0625 501.503906 309.082031 C 498.714844 309.640625 496.179688 310.707031 493.765625 312.335938 C 483.839844 319.074219 474.523438 326.53125 465.667969 334.621094 C 452.144531 347.003906 439.945312 360.597656 428.722656 375.078125 C 427.117188 377.167969 427.164062 377.191406 429.09375 379.121094 C 429.464844 379.492188 429.859375 379.792969 430.257812 380.140625 C 442.386719 390.761719 456.210938 398.59375 470.96875 404.867188 C 475.617188 406.84375 480.378906 408.585938 485.5625 410.628906 C 482.167969 411.164062 479.449219 410.886719 476.824219 409.652344 C 475.082031 408.839844 473.246094 408.257812 471.527344 407.421875 C 464.648438 404.101562 457.605469 404.238281 450.472656 406.398438 C 448.519531 406.980469 446.570312 407.726562 445.3125 409.5625 C 444.152344 411.28125 443.640625 411.351562 442.59375 409.675781 C 441.574219 408.050781 440.667969 406.332031 439.828125 404.585938 C 439.0625 403.03125 437.808594 402.3125 436.179688 402.125 C 431.230469 401.566406 427.605469 403.914062 425.816406 408.746094 C 425.421875 409.816406 425.144531 411.1875 423.539062 410.769531 C 422.355469 410.46875 422.890625 409.304688 422.75 408.492188 C 422.703125 408.234375 422.726562 407.980469 422.75 407.726562 C 422.84375 405.632812 421.890625 404.542969 419.914062 403.75 C 417.242188 402.683594 414.5 402.21875 411.710938 401.707031 C 410.132812 401.402344 409.390625 402.03125 408.644531 403.285156 C 407.34375 405.492188 405.785156 407.5625 404.460938 409.769531 C 403.695312 411.046875 402.859375 410.976562 401.652344 410.511719 C 403 407.285156 405.695312 405.050781 406.601562 401.589844 C 399.953125 402.007812 394.539062 404.191406 390.730469 409.46875 C 389.9375 410.558594 389.40625 411.304688 387.894531 410.421875 C 390.289062 404.914062 392.984375 399.5 394.308594 393.574219 C 396.121094 385.417969 396.5625 378.703125 395.328125 376.167969 C 386.917969 386.347656 379.550781 397.199219 373.207031 408.699219 C 372.140625 410.652344 370.953125 411.304688 368.539062 410.558594 L 368.539062 351.558594 C 366.957031 351.140625 365.839844 351.488281 364.726562 351.746094 C 357.289062 353.300781 350.667969 356.625 344.578125 361.109375 C 334.679688 368.40625 327.152344 377.816406 320.597656 388.089844 C 316.4375 394.617188 312.90625 401.472656 309.699219 408.515625 C 309.164062 409.675781 308.957031 411.464844 306.46875 410.511719 C 311.652344 398.40625 317.832031 387.160156 325.734375 376.910156 C 330.871094 370.265625 336.65625 364.269531 343.394531 359.183594 Z M 744.101562 357.648438 C 751.792969 366.292969 759.460938 374.890625 766.96875 383.789062 C 769.222656 382.652344 768.757812 380.28125 769.617188 378.585938 C 770.5 376.910156 771.5 375.285156 772.519531 373.519531 C 762.855469 368.546875 753.488281 363.15625 744.101562 357.625 Z M 772.382812 378.46875 C 774.125 377.609375 775.632812 376.890625 777.285156 376.074219 C 775.410156 374.882812 773.777344 375.679688 772.382812 378.46875 Z M 823.039062 394.921875 C 819.996094 392.851562 817.042969 392.226562 814.300781 391.273438 C 804.261719 387.695312 794.410156 383.699219 784.742188 379.234375 C 778.726562 376.445312 772.847656 379.816406 770.082031 384.09375 C 769.246094 385.394531 769.082031 386.460938 770.21875 387.878906 C 774.84375 393.550781 779.304688 399.359375 783.90625 405.214844 C 795.433594 396.523438 808.703125 395.058594 823.039062 394.945312 Z M 699.832031 393.316406 C 700.230469 395.269531 702.179688 394.039062 703.390625 393.992188 C 718.5625 393.386719 733.644531 393.992188 748.632812 396.917969 C 758.925781 398.917969 768.710938 402.148438 778.214844 406.421875 C 779.910156 407.191406 781.515625 408.144531 783.164062 409.027344 C 783.28125 408.886719 783.417969 408.769531 783.535156 408.632812 C 779.515625 403.378906 775.261719 398.265625 771.542969 392.804688 C 768.847656 388.878906 765.339844 387.207031 760.855469 386.417969 C 749.980469 384.464844 739.105469 384.71875 728.207031 385.882812 C 719.515625 386.789062 710.871094 388.113281 702.691406 391.433594 C 701.601562 391.875 699.507812 391.808594 699.832031 393.339844 Z M 699.855469 362.621094 C 699.855469 370.589844 699.765625 378.585938 699.695312 386.554688 C 699.695312 387.578125 699.695312 388.601562 699.695312 389.855469 C 721.003906 382.652344 742.265625 380.933594 763.945312 384.582031 C 764.386719 384.023438 763.921875 383.652344 763.621094 383.324219 C 752.953125 370.917969 741.871094 358.949219 730.042969 347.632812 C 726.835938 344.542969 723.351562 343.125 719.214844 342.519531 C 713.449219 341.660156 707.6875 341.777344 701.925781 342.542969 C 700.253906 342.777344 699.554688 343.355469 699.625 345.238281 C 699.832031 351.027344 699.855469 356.835938 699.832031 362.621094 Z M 699.324219 340.613281 C 706.851562 339.5 714.007812 339.359375 722.117188 340.636719 C 714.496094 333.785156 707.269531 327.882812 699.324219 322.28125 Z M 580.578125 281.988281 C 579.695312 281.988281 578.789062 282.3125 577.90625 282.242188 C 570.84375 281.636719 566.472656 285.75 562.757812 290.933594 C 562.246094 291.652344 561.78125 292.398438 561.292969 293.117188 C 569.890625 289.238281 578.164062 285.101562 587.0625 281.964844 C 584.902344 281.964844 582.738281 281.941406 580.578125 281.964844 Z M 654.242188 296.253906 C 653.101562 295.605469 651.964844 295.023438 650.664062 295.671875 C 648.664062 296.671875 646.691406 297.742188 644.714844 298.789062 C 647.621094 299.34375 650.246094 299.925781 652.871094 300.273438 C 653.660156 300.390625 654.847656 300.972656 655.007812 299.671875 C 655.148438 298.53125 655.730469 297.136719 654.242188 296.253906 Z M 659.214844 301.390625 C 662.1875 302.0625 665.1875 302.667969 668.765625 303.433594 C 665.070312 300.902344 661.515625 299.484375 658.007812 297.949219 C 656.984375 300.832031 656.984375 300.878906 659.214844 301.390625 Z M 694.953125 297.394531 C 694.304688 288.421875 693.140625 279.5 692.027344 270.578125 C 690.398438 257.703125 688.402344 244.875 684.3125 232.492188 C 683.429688 229.796875 682.429688 227.144531 680.941406 224.730469 C 680.335938 223.753906 679.6875 222.753906 678.921875 221.917969 C 677.015625 219.894531 675.179688 219.941406 673.390625 222.105469 C 670.808594 225.21875 669.324219 228.914062 668.066406 232.722656 C 664.792969 242.644531 662.910156 252.871094 661.375 263.164062 C 659.910156 272.949219 658.679688 282.777344 657.960938 292.675781 C 657.820312 294.652344 658.402344 295.628906 660.191406 296.441406 C 672.042969 301.808594 683.242188 308.339844 694 315.65625 C 694.488281 315.984375 694.929688 316.5625 696.070312 316.355469 C 696.207031 309.941406 695.417969 303.667969 694.976562 297.394531 Z M 696.628906 322.140625 C 696.582031 320.722656 695.976562 319.792969 694.816406 318.980469 C 689.980469 315.542969 685.148438 312.054688 679.871094 309.476562 C 675.296875 307.246094 670.207031 306.0625 665.210938 304.898438 C 663.699219 304.550781 662.167969 304.339844 660.65625 303.992188 C 656.984375 303.203125 656.867188 303.203125 656.683594 307.058594 C 656.007812 320.792969 655.195312 334.527344 654.9375 348.285156 C 654.914062 349.675781 655.125 350.746094 656.195312 351.675781 C 658.796875 353.953125 661.351562 356.300781 664.140625 358.808594 C 673.179688 348.886719 684.890625 344.449219 697.183594 341.054688 C 697 334.667969 696.765625 328.390625 696.605469 322.117188 Z M 655.125 357.855469 C 656.332031 358.136719 657.402344 357.71875 658.726562 357.507812 C 658.144531 355.765625 656.589844 355.113281 655.171875 353.535156 C 654.800781 355.347656 654.660156 356.601562 655.125 357.855469 Z M 696.535156 400.101562 C 697.347656 399.011719 697.976562 397.988281 696.648438 397.128906 C 696.417969 396.964844 695.765625 397.058594 695.605469 397.269531 C 694.488281 398.59375 696.230469 399.128906 696.535156 400.101562 Z M 692.539062 394.085938 C 693.117188 394.015625 693.375 394.0625 693.558594 393.96875 C 696.671875 392.480469 697.535156 390.0625 697.558594 386.601562 C 697.695312 372.425781 697.601562 358.277344 697.371094 343.796875 C 695.046875 343.636719 693.28125 344.519531 691.46875 345.101562 C 684.9375 347.167969 678.78125 350.027344 673.085938 353.859375 C 671.808594 354.71875 670.53125 355.648438 669.4375 356.71875 C 664.582031 361.4375 665.511719 360.53125 669.160156 364.339844 C 675.132812 370.589844 680.523438 377.308594 685.707031 384.207031 C 688.144531 387.460938 690.75 390.597656 692.5625 394.109375 Z M 666.859375 380.839844 C 669.4375 380.675781 671.972656 381.1875 674.503906 381.652344 C 677.039062 382.09375 679.363281 383.140625 681.988281 383.789062 C 677.992188 377.398438 673.019531 371.894531 668.023438 366.386719 C 666.90625 365.152344 665.558594 364.085938 664.605469 362.738281 C 662.46875 359.691406 659.492188 359.738281 656.332031 360.109375 C 655.171875 360.25 654.824219 360.902344 654.824219 361.921875 C 654.824219 366.941406 654.847656 371.960938 654.824219 376.957031 C 654.824219 378.097656 655.378906 378.515625 656.378906 378.746094 C 659.867188 379.515625 663.140625 381.117188 666.859375 380.886719 Z M 655.636719 382.746094 C 656.472656 382.488281 657.308594 382.304688 658.449219 382.023438 C 657.214844 381.117188 656.308594 380.628906 655.289062 380.769531 C 654.660156 380.863281 654.242188 381.488281 654.3125 382.1875 C 654.40625 383.164062 655.007812 382.953125 655.660156 382.746094 Z M 649.917969 363.503906 C 650.78125 365.59375 650.847656 367.964844 652.660156 370.453125 C 652.660156 367.5 652.660156 365.199219 652.660156 362.898438 C 652.660156 362.132812 652.660156 361.15625 651.5 361.527344 C 650.664062 361.808594 649.292969 361.96875 649.917969 363.503906 Z M 648.59375 359.320312 C 649.011719 359.996094 649.59375 360.25 650.152344 359.785156 C 650.964844 359.136719 652.617188 359.507812 652.59375 357.8125 C 652.59375 356.417969 652.59375 355 652.59375 353.117188 C 650.523438 354.117188 649.617188 355.488281 648.664062 356.8125 C 648.085938 357.625 648.0625 358.4375 648.59375 359.320312 Z M 647.109375 354.789062 C 648.828125 353.1875 650.105469 351.976562 651.664062 350.539062 C 648.527344 347.957031 645.480469 345.449219 642.4375 342.960938 C 642.273438 343.054688 642.113281 343.171875 641.949219 343.265625 C 643.621094 346.980469 645.273438 350.722656 647.109375 354.8125 Z M 651.847656 347.75 C 652.964844 347.421875 652.753906 346.703125 652.777344 346.121094 C 653.195312 332.25 653.5 318.351562 654.824219 304.527344 C 654.9375 303.273438 654.613281 302.808594 653.242188 302.550781 C 644.039062 300.855469 635.164062 301.367188 626.449219 305.179688 C 620.222656 307.898438 613.832031 310.242188 607.859375 313.542969 C 606.070312 314.542969 604.1875 315.402344 602.421875 317.050781 C 620.59375 324.882812 637.09375 335.109375 651.847656 347.773438 Z M 570.144531 306.992188 C 579.347656 308.894531 588.316406 311.5 597.054688 314.9375 C 598.960938 315.679688 600.285156 315.472656 601.980469 314.425781 C 612.878906 307.757812 624.519531 302.808594 636.90625 299.695312 C 640.972656 298.671875 644.4375 296.488281 648.570312 294.09375 C 643.273438 291.582031 638.230469 290.191406 633.257812 288.65625 C 623.777344 285.75 614.0625 284.054688 604.257812 282.683594 C 598.613281 281.894531 593.242188 283.195312 587.945312 284.636719 C 578.71875 287.167969 570.214844 291.351562 562.011719 296.207031 C 558.875 298.066406 556.574219 300.4375 556.34375 304.574219 C 560.945312 305.339844 565.566406 306.015625 570.167969 306.96875 Z M 534.707031 301.691406 C 535.058594 302.785156 535.335938 303.433594 536.707031 303.410156 C 541.980469 303.296875 547.234375 303.738281 552.484375 304.179688 C 553.4375 304.25 554.042969 304.316406 554.34375 302.992188 C 555.972656 296.207031 559.875 290.675781 564.429688 285.566406 C 564.941406 285.007812 565.613281 284.566406 565.683594 283.542969 C 559.039062 284.355469 552.484375 285.566406 546.210938 287.726562 C 540.9375 289.539062 536.9375 293.164062 535.101562 298.695312 C 534.800781 299.625 534.335938 300.53125 534.683594 301.667969 Z M 532.617188 303.273438 C 531.964844 298.460938 534.175781 294.765625 537.378906 290.539062 C 525.25 294.582031 514.609375 299.671875 504.523438 306.0625 C 513.75 304.339844 523.042969 303.808594 532.617188 303.273438 Z M 407.996094 364.6875 C 407.25 363.828125 406.578125 363.339844 405.554688 364.527344 C 403.207031 367.222656 400.746094 369.800781 398.421875 372.777344 C 402.882812 371.429688 407.226562 369.753906 412.550781 371.777344 C 411.0625 368.753906 409.667969 366.640625 407.996094 364.710938 Z M 410.179688 361.414062 C 409.738281 360.925781 409.203125 360.621094 408.621094 361.296875 C 407.972656 362.0625 408.691406 362.457031 409.085938 362.808594 C 410.691406 364.222656 412.339844 365.59375 413.988281 366.988281 C 414.222656 366.78125 414.453125 366.570312 414.664062 366.363281 C 413.175781 364.710938 411.6875 363.0625 410.179688 361.414062 Z M 488.535156 312.960938 C 481.773438 314.425781 475.453125 316.84375 469.226562 319.492188 C 448.636719 328.253906 430.535156 340.730469 414.128906 355.835938 C 413.941406 356.019531 413.757812 356.207031 413.570312 356.371094 C 411.820312 358.042969 411.757812 359.792969 413.386719 361.621094 C 417.40625 366.105469 420.84375 371.101562 425.726562 375.355469 C 443.941406 351.933594 464.253906 330.460938 488.535156 312.9375 Z M 419.890625 383.023438 C 423.003906 379.328125 423.539062 380.117188 420.171875 376.402344 C 418.917969 375.007812 417.589844 373.636719 416.195312 372.171875 C 416.082031 372.660156 415.917969 372.9375 415.988281 373.148438 C 417.21875 376.332031 418.496094 379.492188 419.890625 383.046875 Z M 415.6875 392.945312 C 417.5 393.132812 418.730469 393.269531 420.355469 393.457031 C 420.054688 391.808594 419.777344 390.390625 419.472656 388.714844 C 417.5 389.390625 417.011719 391.132812 415.6875 392.945312 Z M 443.875 407.375 C 448.613281 404.101562 453.75 403.214844 459.859375 402.449219 C 455.769531 400.195312 452.496094 398.105469 448.984375 396.5 C 446.429688 395.339844 441.015625 398.941406 441.132812 401.636719 C 441.199219 403.660156 442.734375 405.285156 443.894531 407.375 Z M 439.34375 399.21875 C 441.199219 397.222656 442.851562 395.410156 445.917969 394.527344 C 439.039062 390.042969 432.8125 385.71875 427.09375 380.652344 C 431.230469 386.789062 435.414062 392.828125 439.34375 399.21875 Z M 424.75 404.496094 C 429.394531 400.730469 430.347656 400.359375 436.4375 399.871094 C 435.230469 396.453125 431.628906 394.109375 428.699219 394.851562 C 424.515625 395.921875 423.585938 398.082031 424.726562 404.496094 Z M 423.097656 394.945312 C 426.050781 394.152344 428.421875 391.503906 431.929688 392.433594 C 429.605469 388.507812 427.28125 384.859375 424.167969 381.375 C 423.378906 382.371094 422.726562 383.277344 422.007812 384.117188 C 421.101562 385.160156 420.796875 386.207031 421.261719 387.648438 C 421.984375 389.972656 422.472656 392.363281 423.097656 394.945312 Z M 421.960938 402.171875 C 421.078125 399.546875 422.609375 396.546875 419.007812 395.570312 C 415.476562 394.617188 414.058594 395.269531 411.457031 399.429688 C 415.082031 400.101562 418.359375 400.636719 421.960938 402.171875 Z M 410.597656 396.410156 C 408.019531 396.664062 406.34375 397.824219 404.578125 398.777344 C 407.554688 400.148438 408.34375 399.871094 410.597656 396.410156 Z M 393.632812 403.171875 C 396.792969 401.777344 399.304688 400.476562 401.488281 398.382812 C 403.929688 396.082031 407.113281 394.828125 410.316406 393.898438 C 412.292969 393.316406 413.386719 392.039062 414.734375 390.597656 C 418.148438 386.996094 418.148438 383.535156 416.175781 379.210938 C 413.757812 373.9375 410.527344 371.9375 404.8125 373.308594 C 403.695312 373.589844 402.558594 373.84375 401.511719 374.261719 C 399.417969 375.097656 398.210938 376.5625 398.28125 378.933594 C 398.492188 387.113281 396.609375 394.921875 393.632812 403.148438 Z M 398.09375 369.3125 C 400.441406 366.78125 402.417969 364.664062 404.671875 362.226562 C 401.535156 359.832031 398.652344 357.855469 394.867188 356.230469 C 396.445312 360.621094 397.28125 364.6875 398.117188 369.3125 Z M 370.882812 406.980469 C 378.15625 395.457031 385.523438 384.441406 394.097656 374.285156 C 395.5625 372.566406 396.050781 370.871094 395.726562 368.664062 C 395.097656 364.574219 394.238281 360.597656 392.472656 356.8125 C 391.773438 355.324219 390.914062 354.230469 389.3125 353.675781 C 383.921875 351.792969 378.390625 350.816406 372.648438 350.792969 C 370.953125 350.792969 370.722656 351.652344 370.722656 352.929688 C 370.675781 357.925781 370.582031 362.898438 370.605469 367.894531 C 370.675781 378.792969 370.976562 389.691406 370.558594 400.589844 C 370.488281 402.707031 370.746094 404.820312 370.859375 406.933594 Z M 371.835938 348.585938 C 373.882812 348.609375 375.925781 348.769531 377.972656 348.933594 C 387.429688 349.699219 395.726562 353.441406 403.507812 358.601562 C 404.601562 359.320312 405.949219 361.085938 406.996094 359.507812 C 407.761719 358.367188 405.648438 357.578125 404.71875 356.859375 C 396.421875 350.46875 387.3125 346.050781 376.648438 345.632812 C 376.136719 345.632812 375.648438 345.519531 375.742188 345.519531 C 373.976562 345.679688 372.835938 345.773438 371.675781 345.890625 C 370.699219 345.984375 370.417969 346.632812 370.464844 347.515625 C 370.511719 348.351562 371.1875 348.5625 371.8125 348.5625 Z M 367.304688 349.191406 C 368.1875 349.003906 368.652344 348.5625 368.445312 347.585938 C 368.210938 346.5625 367.445312 346.515625 366.65625 346.703125 C 363.308594 347.492188 360.289062 348.933594 357.683594 351.257812 C 360.890625 350.5625 364.097656 349.863281 367.328125 349.191406 Z M 367.304688 349.191406 " fill-opacity="1" fill-rule="nonzero"/><g clip-path="url(#946864ff7e)"><path fill="#420a0b" d="M 1183.707031 126.714844 C 1183.40625 131.941406 1181.941406 137.078125 1181.035156 142.28125 C 1177.503906 162.5 1175.179688 182.878906 1173.691406 203.328125 C 1173.089844 211.671875 1172.808594 220.011719 1172.414062 228.355469 C 1171.671875 244.527344 1172.183594 260.585938 1174.621094 276.597656 C 1176.851562 291.257812 1182.058594 304.597656 1192.65625 315.402344 C 1194.746094 317.515625 1194.652344 318.863281 1192.492188 320.886719 C 1183.011719 329.761719 1178.550781 341.078125 1177.179688 353.605469 C 1175.597656 368.035156 1178.386719 381.953125 1184.429688 395.105469 C 1186.566406 399.753906 1188.125 405.097656 1193.234375 407.863281 C 1194.398438 408.492188 1194.351562 409.699219 1193.421875 410.953125 C 1189.585938 408.375 1186.101562 405.492188 1181.847656 403.703125 C 1175.0625 400.847656 1168.117188 398.707031 1160.933594 397.246094 C 1147.296875 394.480469 1133.609375 393.621094 1119.992188 396.988281 C 1110.554688 399.335938 1101.539062 402.753906 1094.683594 410.1875 C 1093.429688 411.535156 1091.570312 411.257812 1090.292969 409.582031 C 1088.597656 407.375 1087.132812 404.984375 1085.34375 402.867188 C 1077.210938 393.339844 1066.777344 387.300781 1055.066406 383.347656 C 1046.351562 380.421875 1037.40625 380.027344 1028.691406 382.929688 C 1018.140625 386.4375 1007.753906 390.4375 997.109375 393.644531 C 996.296875 393.898438 995.554688 394.339844 994.765625 394.710938 C 1014.515625 393.15625 1032.128906 398.199219 1048.023438 410.398438 C 1045.652344 411.511719 1044.351562 410.511719 1042.84375 409.5625 C 1033.871094 403.796875 1024.296875 399.589844 1013.632812 398.082031 C 1004.664062 396.804688 995.785156 397.222656 985.980469 399.171875 C 1009.796875 401.589844 1022.882812 405.238281 1027.96875 410.746094 C 1025.066406 410.910156 1025.042969 410.953125 1022.996094 410.003906 C 1009.125 403.472656 994.4375 401.425781 979.3125 402.242188 C 973.058594 402.566406 966.761719 403.332031 960.652344 404.773438 C 953.703125 406.398438 946.824219 408.421875 939.945312 410.328125 C 936.042969 411.417969 932.140625 410.816406 928.210938 410.582031 C 939.273438 408.234375 950.007812 404.84375 960.90625 402.148438 C 966.4375 400.777344 970.550781 398.082031 973.640625 393.0625 C 979.777344 383.140625 983.214844 372.378906 985.027344 361.015625 C 986.328125 352.769531 987.421875 344.496094 986.003906 336.105469 C 985.539062 333.363281 984.5625 330.902344 982.75 328.648438 C 960.628906 342.359375 937.925781 354.511719 914.480469 365.386719 C 914.804688 365.921875 914.964844 366.339844 915.246094 366.640625 C 921.683594 373.683594 924.820312 381.953125 924.539062 391.503906 C 924.332031 398.199219 922.007812 404.054688 917.777344 409.210938 C 916.570312 410.675781 915.363281 411.488281 913.386719 410.488281 C 913.734375 410.046875 913.96875 409.675781 914.269531 409.375 C 925.839844 397.476562 923.585938 380.46875 914.433594 369.40625 C 912.039062 366.523438 911.875 366.570312 908.53125 368.058594 C 898.628906 372.449219 888.707031 376.75 878.625 380.746094 C 852.203125 391.226562 825.292969 400.195312 797.917969 407.839844 C 791.179688 409.722656 784.488281 412 777.003906 410.605469 C 780.304688 408.632812 783.882812 407.679688 787.230469 406.726562 C 798.777344 403.402344 809.886719 398.941406 820.992188 394.480469 C 836.214844 388.367188 851.109375 381.535156 865.75 374.125 C 880.273438 366.78125 894.449219 358.878906 908.4375 350.605469 C 909.667969 349.886719 910.898438 349.234375 910.945312 347.355469 C 911.015625 343.265625 912.085938 339.265625 912.597656 335.222656 C 914.5 320.539062 917.546875 306.085938 921.402344 291.816406 C 925.703125 275.96875 930.929688 260.445312 938.273438 245.714844 C 942.457031 237.300781 947.171875 229.214844 953.355469 222.058594 C 956.839844 218.039062 960.789062 214.597656 965.484375 212.019531 C 974.382812 207.117188 983.492188 210.253906 989.023438 216.339844 C 994.253906 222.105469 997.390625 229.003906 999.921875 236.230469 C 1002.640625 243.96875 1004.152344 252.011719 1005.664062 259.980469 C 1006.777344 260.421875 1007.476562 259.703125 1008.195312 259.285156 C 1019.488281 252.683594 1031.269531 247.152344 1043.539062 242.691406 C 1044.722656 242.273438 1045.5625 241.554688 1046.375 240.695312 C 1057.667969 228.957031 1068.660156 216.945312 1079.117188 204.445312 C 1090.875 190.40625 1102.050781 175.90625 1112.671875 160.941406 C 1126.519531 141.445312 1139.277344 121.253906 1150.734375 100.269531 C 1167.859375 68.96875 1182.058594 36.414062 1192.515625 2.277344 C 1192.746094 1.535156 1192.609375 0.324219 1193.957031 -0.09375 C 1193.957031 2.859375 1194.234375 5.578125 1193.328125 8.34375 C 1186.867188 28.28125 1179.269531 47.800781 1170.460938 66.808594 C 1157.542969 94.644531 1142.507812 121.324219 1125.476562 146.835938 C 1107.789062 173.328125 1088.363281 198.496094 1067.007812 222.148438 C 1061.804688 227.914062 1056.527344 233.605469 1051.300781 239.347656 C 1063.40625 236.117188 1075.398438 233.234375 1087.691406 232.628906 C 1092.5 232.398438 1093.847656 230.421875 1095.101562 226.285156 C 1102.5625 201.609375 1113.972656 178.671875 1126.730469 156.386719 C 1135.839844 140.492188 1145.691406 125.039062 1155.914062 109.820312 C 1165.558594 95.460938 1175.410156 81.238281 1185.824219 67.410156 C 1188.472656 63.878906 1192.003906 60.976562 1193.792969 56.304688 C 1193.910156 57.328125 1193.957031 57.882812 1194.003906 58.464844 C 1195.023438 70.921875 1192.074219 82.886719 1189.84375 94.996094 C 1187.890625 105.589844 1184.335938 115.839844 1183.707031 126.714844 Z M 909.992188 356.71875 C 909.96875 355.558594 909.992188 354.394531 909.992188 352.722656 C 882.15625 369.289062 853.664062 384.09375 823.78125 396.152344 C 820.507812 397.128906 817.300781 398.199219 814.464844 400.195312 C 818.253906 399.335938 822.132812 398.917969 825.570312 396.941406 C 851.574219 388.761719 876.996094 379.097656 902 368.269531 C 902.140625 368.199219 902.253906 368.128906 902.417969 368.105469 C 908.53125 366.710938 910.15625 362.320312 910.015625 356.742188 Z M 1191.5625 318.421875 C 1189.167969 315.378906 1187.171875 312.847656 1185.171875 310.289062 C 1179.921875 303.621094 1176.644531 296 1174.4375 287.867188 C 1170.972656 275.203125 1170.183594 262.210938 1169.648438 249.175781 C 1169.207031 237.882812 1169.765625 226.613281 1170.347656 215.363281 C 1171.230469 198.261719 1172.671875 181.183594 1175.179688 164.21875 C 1175.34375 163.058594 1175.433594 161.894531 1175.550781 160.710938 C 1175.621094 160.476562 1175.714844 160.222656 1175.761719 159.96875 C 1176.667969 157.015625 1176.96875 153.972656 1176.945312 150.882812 C 1175.527344 153.390625 1174.714844 156.0625 1174.621094 158.945312 C 1170.578125 173.140625 1166.558594 187.339844 1162.445312 201.515625 C 1160.726562 207.417969 1158.449219 213.15625 1156.984375 219.105469 C 1154.171875 230.65625 1152.777344 242.414062 1153.636719 254.3125 C 1154.335938 264.09375 1155.542969 273.832031 1158.65625 283.21875 C 1162.792969 295.671875 1169.71875 306.105469 1180.59375 313.636719 C 1183.707031 315.796875 1187.078125 317.515625 1191.5625 318.398438 Z M 1041.703125 374.542969 C 1043.75 374.984375 1045.1875 373.707031 1046.722656 373.054688 C 1057.621094 368.453125 1068.496094 363.828125 1078.953125 358.253906 C 1082.019531 356.601562 1083.507812 354.652344 1083.089844 351.117188 C 1082.695312 347.933594 1083.207031 344.660156 1082.042969 341.566406 C 1081.417969 339.917969 1080.625 338.59375 1078.605469 338.128906 C 1069.21875 335.992188 1060.175781 332.714844 1050.511719 329.738281 C 1054.671875 346.425781 1053.324219 361.480469 1041.703125 374.566406 Z M 1080.300781 336.058594 C 1081.90625 336.523438 1083.554688 336.246094 1085.042969 335.6875 C 1093.359375 332.527344 1100.078125 327.371094 1104.839844 319.746094 C 1105.652344 318.445312 1105.980469 317.191406 1105.746094 315.613281 C 1104.699219 308.988281 1103.769531 302.367188 1102.703125 294.882812 C 1096.871094 303.738281 1090.105469 310.847656 1081.695312 316.285156 C 1073.238281 321.722656 1064.242188 325.742188 1054.320312 327.71875 C 1062.894531 331.226562 1071.65625 333.527344 1080.324219 336.082031 Z M 1156.566406 355.953125 C 1157.378906 346.84375 1160.167969 338.640625 1165.140625 330.761719 C 1161.65625 330.761719 1158.84375 332.179688 1155.847656 332.714844 C 1152.546875 333.320312 1149.363281 334.527344 1146.039062 335.015625 C 1142.808594 335.480469 1140.742188 337.269531 1139.160156 339.824219 C 1136.023438 344.867188 1135.046875 350.421875 1135.628906 356.253906 C 1135.886719 358.785156 1136.792969 360.855469 1138.859375 362.644531 C 1146.273438 369.011719 1153.523438 375.5625 1161.144531 381.90625 C 1157.984375 373.472656 1155.730469 365.105469 1156.566406 355.953125 Z M 1138.09375 336.617188 C 1134.886719 336.851562 1132.144531 337.011719 1129.402344 337.269531 C 1126.125 337.570312 1125.40625 338.269531 1125.011719 341.589844 C 1124.242188 348.238281 1127.242188 353.046875 1133.167969 357.390625 C 1132.238281 349.398438 1134.234375 342.914062 1138.09375 336.640625 Z M 1110.441406 319.238281 C 1109.183594 319.304688 1109.023438 320.027344 1109.140625 321.003906 C 1109.488281 323.882812 1109.859375 326.789062 1110.207031 329.578125 C 1112.949219 330.179688 1114.25 328.625 1115.132812 326.695312 C 1116.738281 323.28125 1118.203125 319.816406 1120.105469 315.472656 C 1116.644531 317.539062 1113.738281 319.074219 1110.441406 319.214844 Z M 1115.691406 315.078125 C 1113.136719 314.519531 1110.554688 314.308594 1108.164062 312.730469 C 1108.441406 316.820312 1108.765625 317.191406 1111.648438 316.679688 C 1113.019531 316.449219 1114.34375 315.84375 1115.691406 315.078125 Z M 1116.714844 329.34375 C 1118.96875 330.066406 1120.570312 331.507812 1121.105469 333.945312 C 1121.363281 335.152344 1122.335938 335.246094 1123.5 335.246094 C 1127.3125 335.246094 1131.050781 334.574219 1135.746094 334.085938 C 1129.101562 330.113281 1124.636719 325.046875 1122.011719 317.726562 C 1120.128906 321.816406 1118.527344 325.371094 1116.714844 329.320312 Z M 1116.945312 346.050781 C 1115.414062 347.191406 1113.902344 348.285156 1112.4375 349.445312 C 1111.8125 349.933594 1111.648438 350.722656 1111.902344 351.421875 C 1112.253906 352.375 1113.160156 352.117188 1113.714844 351.792969 C 1115.902344 350.539062 1118.644531 351.605469 1120.964844 350.050781 C 1119.710938 348.515625 1118.480469 347.144531 1116.96875 346.03125 Z M 1122.175781 347.285156 C 1122.59375 344.402344 1122.035156 341.613281 1123.128906 338.988281 C 1123.335938 338.476562 1123.175781 338.082031 1122.800781 337.941406 C 1122.269531 337.734375 1121.523438 337.734375 1121.246094 338.292969 C 1120.433594 339.964844 1119.410156 341.636719 1119.085938 343.425781 C 1118.734375 345.449219 1121.269531 345.75 1122.175781 347.285156 Z M 1125.636719 354.207031 C 1124.613281 353.1875 1123.152344 353.488281 1121.875 353.257812 C 1121.152344 353.117188 1120.386719 353.117188 1119.6875 353.210938 C 1110.882812 354.464844 1110.53125 355.160156 1109.671875 362.898438 C 1109.605469 363.597656 1109.140625 364.292969 1109.488281 365.015625 C 1119.617188 359.996094 1125.589844 360.042969 1131.632812 360.390625 C 1129.496094 358.183594 1127.613281 356.160156 1125.660156 354.1875 Z M 1111.859375 346.796875 C 1115.714844 344.171875 1118.433594 340.730469 1118.992188 336.523438 C 1118.875 332.992188 1117.109375 331.460938 1114.089844 331.667969 C 1108.765625 332.039062 1102.398438 338.617188 1102.144531 343.984375 C 1102.003906 346.890625 1103.65625 348.65625 1106.605469 348.679688 C 1108.582031 348.679688 1110.300781 347.863281 1111.859375 346.796875 Z M 1099.984375 348.632812 C 1102.5625 351.511719 1104.980469 354.394531 1107.929688 357.949219 C 1108.511719 355.207031 1108.90625 353.371094 1109.347656 351.304688 C 1106.023438 351.003906 1102.679688 351.046875 1099.984375 348.632812 Z M 1102.886719 336.105469 C 1103.074219 335.597656 1103.5625 335.085938 1104.027344 334.78125 C 1108.976562 331.691406 1107.882812 327.4375 1106.304688 322.582031 C 1101.191406 329.136719 1095.195312 334.109375 1087.597656 337.476562 C 1090.0625 338.800781 1092.453125 338.824219 1094.683594 339.335938 C 1098.054688 340.105469 1101.378906 340.335938 1102.886719 336.105469 Z M 1107.046875 307.5 C 1107.117188 308.429688 1107.722656 309.40625 1108.511719 310.152344 C 1112.207031 313.589844 1120.804688 312.777344 1122.941406 308.292969 C 1125.542969 302.855469 1127.449219 297.066406 1130.097656 290.351562 C 1121.570312 295.277344 1113.695312 295.882812 1105.304688 292.582031 C 1105.304688 297.8125 1106.722656 302.597656 1107.046875 307.476562 Z M 1124.894531 310.523438 C 1123.894531 312.847656 1123.777344 315.101562 1124.570312 317.308594 C 1126.425781 322.511719 1129.425781 326.953125 1134.140625 330.042969 C 1137.789062 332.433594 1141.53125 333.828125 1146.0625 332.503906 C 1150.941406 331.0625 1155.960938 330.113281 1160.910156 328.925781 C 1161.65625 328.765625 1162.261719 328.390625 1162.679688 327.742188 C 1145.597656 322.398438 1137.652344 308.894531 1132.027344 292.558594 C 1129.425781 299.136719 1127.3125 304.898438 1124.894531 310.5 Z M 1152.269531 377.933594 C 1148.222656 374.332031 1143.902344 371.007812 1140.136719 367.152344 C 1136.859375 363.78125 1132.863281 362.851562 1128.613281 362.738281 C 1123.617188 362.597656 1118.691406 363.433594 1114.160156 365.710938 C 1110.277344 367.640625 1107.1875 370.195312 1106.140625 374.84375 C 1105.09375 379.492188 1103.539062 384.023438 1102.003906 389.320312 C 1118.179688 377.214844 1135.558594 376.445312 1153.730469 380.46875 C 1153.964844 378.957031 1152.917969 378.515625 1152.269531 377.933594 Z M 1102.773438 377.421875 C 1104.167969 372.335938 1105.351562 368.035156 1106.535156 363.757812 C 1106.886719 362.527344 1106.464844 361.480469 1105.980469 360.414062 C 1105.1875 358.671875 1104.050781 357.183594 1102.820312 355.71875 C 1098.171875 350.234375 1098.195312 350.234375 1092.292969 353.859375 C 1090.175781 355.160156 1088.039062 356.371094 1085.34375 357.949219 C 1092.847656 362.785156 1098.378906 369.152344 1102.796875 377.421875 Z M 1085.644531 354.605469 C 1090.480469 352.257812 1094.730469 349.65625 1098.660156 346.449219 C 1099.867188 345.449219 1099.773438 344.171875 1099.679688 342.382812 C 1094.660156 342.101562 1089.992188 340.824219 1084.855469 340.148438 C 1085.34375 344.773438 1085.714844 349.351562 1085.644531 354.628906 Z M 1104.210938 287.355469 C 1104.445312 289.003906 1105.652344 289.75 1107.023438 290.421875 C 1114.160156 293.882812 1125.148438 292.046875 1130.820312 286.472656 C 1131.5625 285.726562 1132.144531 284.9375 1132.492188 283.9375 C 1134.328125 278.570312 1136.1875 273.226562 1138.417969 266.8125 C 1125.800781 273.621094 1113.949219 274.761719 1101.539062 267.976562 C 1102.46875 274.714844 1103.351562 281.035156 1104.234375 287.355469 Z M 1103.609375 266.023438 C 1109.625 269.832031 1116.25 270.625 1123.058594 269.695312 C 1128.007812 269.019531 1132.792969 267.601562 1136.882812 264.488281 C 1138.90625 262.957031 1140.507812 261.167969 1141.347656 258.65625 C 1144.785156 248.058594 1148.316406 237.511719 1151.828125 226.9375 C 1152.199219 225.84375 1152.777344 224.777344 1152.3125 223.195312 C 1136.699219 246.292969 1115.34375 249.804688 1097.265625 238.929688 C 1097.84375 242.925781 1098.355469 246.574219 1098.890625 250.199219 C 1099.449219 253.960938 1100.054688 257.726562 1100.5625 261.492188 C 1100.84375 263.535156 1101.867188 264.929688 1103.609375 266.046875 Z M 1101.585938 238.324219 C 1113.113281 244.226562 1124.429688 243.738281 1135.328125 236.859375 C 1145.550781 230.421875 1151.40625 220.523438 1156.054688 209.765625 C 1156.195312 209.441406 1155.984375 208.953125 1155.894531 208.183594 C 1140.371094 224.707031 1121.875 234.535156 1099.054688 235.976562 C 1099.355469 237.136719 1100.449219 237.742188 1101.5625 238.324219 Z M 1156.335938 284.402344 C 1151.476562 269.789062 1150.339844 254.613281 1151.035156 239.371094 C 1149.710938 239.996094 1149.757812 241.648438 1149.339844 242.878906 C 1144.53125 256.542969 1139.789062 270.230469 1135.140625 283.960938 C 1133.679688 288.308594 1134.675781 292.699219 1136.234375 296.765625 C 1139.324219 304.921875 1143.761719 312.265625 1150.339844 318.214844 C 1155.453125 322.839844 1161.632812 324.835938 1168.09375 326.324219 C 1168.511719 326.417969 1169 326.441406 1169.394531 326.324219 C 1175.226562 324.488281 1181.105469 322.816406 1186.84375 319.957031 C 1170.996094 312.636719 1161.5625 300.136719 1156.359375 284.402344 Z M 1183.476562 400.035156 C 1178.039062 387.71875 1174.4375 375.097656 1174.296875 361.503906 C 1174.15625 347.726562 1178.015625 335.339844 1186.402344 323.441406 C 1180.664062 325.371094 1175.691406 326.976562 1170.789062 328.742188 C 1169.929688 329.042969 1169.300781 330.113281 1168.648438 330.902344 C 1156.683594 345.519531 1154.894531 371.125 1168.582031 387.53125 C 1172.808594 392.597656 1178.269531 395.921875 1183.453125 400.035156 Z M 1175.992188 398.199219 C 1168.835938 393.085938 1163.351562 385.71875 1154.21875 383.324219 C 1139.417969 379.46875 1125.011719 379.5625 1110.996094 386.394531 C 1108.210938 387.742188 1105.769531 389.621094 1103.421875 391.597656 C 1099.867188 394.617188 1098.796875 398.871094 1097.335938 403.984375 C 1122.941406 387.972656 1149.246094 390.808594 1175.96875 398.199219 Z M 1092.382812 407.933594 C 1093.777344 406.84375 1094.082031 405.238281 1094.546875 403.773438 C 1096.613281 397.246094 1098.566406 390.644531 1100.773438 384.160156 C 1101.355469 382.441406 1101.191406 380.980469 1100.5625 379.515625 C 1097.171875 371.453125 1091.851562 365.0625 1084.320312 360.484375 C 1082.835938 359.578125 1081.671875 359.667969 1080.277344 360.414062 C 1067.960938 367.082031 1055.019531 372.425781 1041.238281 378.191406 C 1063.175781 380.792969 1080.117188 390.226562 1092.382812 407.910156 Z M 1049.210938 354.742188 C 1050.394531 348.539062 1050.671875 342.289062 1049.464844 336.015625 C 1049.140625 334.269531 1048.488281 332.667969 1047.929688 330.996094 C 1047.28125 328.972656 1045.957031 328.019531 1044.003906 327.371094 C 1039.730469 326 1035.546875 324.417969 1030.664062 322.699219 C 1037.21875 330.367188 1040.820312 338.546875 1041.5625 347.863281 C 1042.285156 356.8125 1040.960938 365.503906 1037.847656 373.960938 C 1044.144531 368.941406 1047.746094 362.386719 1049.210938 354.71875 Z M 912.921875 355.347656 C 914.292969 352.859375 915.152344 351.304688 916.105469 349.539062 C 913.921875 350.265625 912.859375 352.203125 912.921875 355.347656 Z M 1002.640625 257.472656 C 1000.480469 246.851562 998.203125 236.253906 993.066406 226.566406 C 991.488281 223.589844 989.628906 220.78125 987.304688 218.292969 C 980.542969 211.042969 972.734375 210.136719 964.460938 215.597656 C 957.164062 220.40625 952.054688 227.191406 947.546875 234.417969 C 938.808594 248.433594 932.789062 263.652344 927.792969 279.335938 C 921.125 300.183594 917.058594 321.558594 913.921875 343.148438 C 913.757812 344.285156 913.921875 345.449219 913.921875 347.167969 C 916.988281 345.449219 919.335938 344.03125 921.03125 341.382812 C 941.363281 309.988281 967.738281 284.707031 999.296875 264.8125 C 1002.433594 262.839844 1003.363281 260.816406 1002.664062 257.472656 Z M 1004.5 273.179688 C 1004.269531 270.714844 1004.570312 268.160156 1003.199219 265.277344 C 972.152344 284.542969 946.242188 308.804688 925.773438 338.710938 C 925.980469 338.964844 926.167969 339.199219 926.375 339.453125 C 931.046875 336.316406 935.742188 333.179688 940.410156 330.019531 C 961.070312 316.03125 980.730469 300.714844 999.714844 284.566406 C 1005.082031 280.011719 1005.152344 280.011719 1004.5 273.203125 Z M 1005.476562 284.402344 C 1003.804688 283.683594 1003.269531 284.820312 1002.570312 285.425781 C 986.699219 299.113281 970.25 312.078125 953.191406 324.257812 C 943.78125 330.972656 934.230469 337.523438 924.402344 343.613281 C 922.054688 345.054688 920.402344 346.914062 919.101562 349.234375 C 916.617188 353.699219 914.058594 358.113281 911.644531 363.898438 C 919.3125 360.203125 926.074219 357.113281 932.695312 353.765625 C 950.195312 344.890625 967.34375 335.433594 983.867188 324.859375 C 990.511719 320.609375 997.085938 316.214844 1003.710938 311.941406 C 1004.757812 311.265625 1005.5 310.640625 1005.476562 309.222656 C 1005.429688 300.902344 1005.453125 292.582031 1005.453125 284.402344 Z M 1005.59375 313.753906 C 998.808594 318.308594 991.976562 322.792969 984.910156 327.4375 C 989.351562 333.179688 989.371094 339.640625 989.140625 345.84375 C 988.816406 354.582031 987.675781 363.273438 985.375 371.800781 C 982.867188 381.046875 979.289062 389.738281 973.710938 397.546875 C 974.664062 398.222656 975.5 397.800781 976.289062 397.570312 C 994.042969 392.179688 1011.65625 386.4375 1029.109375 380.117188 C 1030.734375 379.539062 1031.78125 378.445312 1032.757812 377.121094 C 1036.195312 372.519531 1037.542969 367.035156 1038.472656 361.597656 C 1039.890625 353.164062 1039.613281 344.75 1036.382812 336.570312 C 1033.523438 329.320312 1028.875 323.953125 1022.089844 319.980469 C 1017.910156 317.539062 1013.609375 315.542969 1009.265625 313.496094 C 1007.941406 312.871094 1006.894531 312.871094 1005.617188 313.730469 Z M 1028.96875 251.453125 C 1022.183594 254.542969 1015.65625 258.144531 1009.101562 261.699219 C 1006.613281 263.046875 1005.824219 264.699219 1006.429688 267.300781 C 1007.171875 270.460938 1007.058594 273.691406 1007.359375 277.804688 C 1018.816406 267.835938 1029.226562 257.820312 1039.984375 247.175781 C 1035.660156 248.246094 1032.339844 249.941406 1028.945312 251.476562 Z M 1058.203125 240.53125 C 1050 242.460938 1043.609375 246.503906 1037.914062 252.589844 C 1029.085938 262.003906 1019.417969 270.601562 1009.753906 279.152344 C 1008.449219 280.3125 1007.753906 281.382812 1007.777344 283.21875 C 1007.894531 291.421875 1007.824219 299.648438 1007.824219 307.964844 C 1018.90625 304.667969 1084.738281 247.199219 1091.5 234.882812 C 1079.859375 235.488281 1069.054688 238 1058.179688 240.554688 Z M 1092.246094 238.996094 C 1067.265625 265.953125 1039.796875 289.585938 1009.753906 310.894531 C 1013.355469 312.472656 1016.445312 313.753906 1019.464844 315.214844 C 1020.511719 315.726562 1021.371094 315.589844 1022.394531 315.308594 C 1025.203125 314.472656 1028.039062 313.636719 1030.597656 312.21875 C 1045.304688 304.132812 1059.203125 294.953125 1070.402344 282.242188 C 1080.601562 270.648438 1088.273438 257.632812 1092.128906 242.554688 C 1092.382812 241.554688 1092.59375 240.601562 1092.246094 239.019531 Z M 1094.941406 242.484375 C 1084.34375 279.523438 1058.320312 301.460938 1025.667969 317.425781 C 1028.597656 319.679688 1032.476562 320.1875 1035.847656 321.839844 C 1036.753906 322.28125 1037.824219 322.398438 1038.730469 322.839844 C 1045.28125 326.070312 1051.953125 325.953125 1058.785156 323.882812 C 1074.167969 319.238281 1087.386719 311.335938 1097.195312 298.324219 C 1097.890625 297.394531 1098.472656 296.371094 1099.191406 295.441406 C 1101.515625 292.351562 1102.050781 288.957031 1101.492188 285.148438 C 1099.542969 271.996094 1097.730469 258.820312 1095.847656 245.644531 C 1095.730469 244.785156 1095.382812 243.96875 1094.964844 242.460938 Z M 1189.007812 67.527344 C 1186.101562 71.363281 1183.128906 75.148438 1180.339844 79.054688 C 1163.027344 103.265625 1146.433594 127.945312 1131.355469 153.621094 C 1117.898438 176.535156 1106.164062 200.238281 1097.84375 225.542969 C 1097.472656 226.660156 1096.871094 227.703125 1097.378906 229.402344 C 1139.253906 181.671875 1169.996094 127.992188 1189.820312 68.039062 C 1189.539062 67.875 1189.285156 67.691406 1189.007812 67.527344 Z M 1173.761719 116.304688 C 1167.324219 130.433594 1160.214844 144.234375 1152.40625 157.667969 C 1144.667969 170.980469 1136.257812 183.832031 1127.195312 196.285156 C 1118.15625 208.71875 1108.558594 220.710938 1097.9375 232.699219 C 1104.675781 233.953125 1110.347656 232.257812 1115.902344 230.5625 C 1134.027344 225.054688 1148.710938 214.644531 1159.703125 199.121094 C 1160.75 197.65625 1161.5625 196.148438 1162.050781 194.429688 C 1165.511719 182.183594 1169.277344 170.027344 1172.390625 157.710938 C 1177.480469 137.589844 1182.730469 117.488281 1186.777344 97.109375 C 1188.285156 89.511719 1189.84375 81.933594 1191.050781 74.242188 C 1185.425781 88.347656 1180.058594 102.523438 1173.761719 116.304688 Z M 1173.761719 116.304688 " fill-opacity="1" fill-rule="nonzero"/></g><g clip-path="url(#a44fa15635)"><path fill="#420a0b" d="M 6.867188 94.996094 C 4.636719 82.910156 1.664062 70.921875 2.710938 58.464844 C 2.753906 57.90625 2.824219 57.351562 2.917969 56.304688 C 4.707031 61 8.238281 63.902344 10.890625 67.410156 C 21.300781 81.238281 31.152344 95.460938 40.796875 109.820312 C 51.019531 125.039062 60.871094 140.492188 69.980469 156.386719 C 82.738281 178.671875 94.148438 201.609375 101.609375 226.285156 C 102.863281 230.421875 104.210938 232.398438 109.019531 232.628906 C 121.335938 233.210938 133.304688 236.117188 145.410156 239.347656 C 140.160156 233.628906 134.882812 227.914062 129.703125 222.148438 C 108.347656 198.496094 88.945312 173.328125 71.238281 146.835938 C 54.179688 121.300781 39.144531 94.644531 26.25 66.808594 C 17.441406 47.800781 9.84375 28.28125 3.382812 8.34375 C 2.476562 5.554688 2.753906 2.859375 2.753906 -0.09375 C 4.105469 0.324219 3.964844 1.535156 4.195312 2.277344 C 14.652344 36.414062 28.875 68.96875 45.976562 100.269531 C 57.457031 121.253906 70.191406 141.445312 84.039062 160.941406 C 94.660156 175.882812 105.835938 190.382812 117.59375 204.445312 C 128.050781 216.921875 139.042969 228.957031 150.335938 240.695312 C 151.152344 241.53125 151.988281 242.25 153.171875 242.691406 C 165.441406 247.175781 177.222656 252.707031 188.515625 259.285156 C 189.238281 259.703125 189.933594 260.421875 191.050781 259.980469 C 192.582031 252.011719 194.09375 243.96875 196.789062 236.230469 C 199.320312 229.003906 202.433594 222.128906 207.6875 216.339844 C 213.21875 210.253906 222.328125 207.117188 231.226562 212.019531 C 235.921875 214.597656 239.871094 218.039062 243.355469 222.058594 C 249.539062 229.214844 254.253906 237.277344 258.4375 245.714844 C 265.78125 260.445312 271.007812 275.96875 275.308594 291.816406 C 279.1875 306.105469 282.210938 320.5625 284.117188 335.222656 C 284.648438 339.265625 285.695312 343.265625 285.765625 347.355469 C 285.789062 349.234375 287.042969 349.863281 288.273438 350.605469 C 302.265625 358.878906 316.460938 366.804688 330.960938 374.125 C 345.601562 381.535156 360.496094 388.367188 375.71875 394.480469 C 386.824219 398.941406 397.933594 403.402344 409.480469 406.726562 C 412.828125 407.703125 416.40625 408.65625 419.707031 410.605469 C 412.222656 412 405.53125 409.722656 398.792969 407.839844 C 371.417969 400.195312 344.507812 391.226562 318.089844 380.746094 C 308.027344 376.75 298.082031 372.449219 288.183594 368.058594 C 284.835938 366.570312 284.671875 366.5 282.28125 369.40625 C 273.125 380.46875 270.871094 397.453125 282.441406 409.375 C 282.746094 409.675781 282.976562 410.046875 283.324219 410.488281 C 281.351562 411.488281 280.140625 410.699219 278.933594 409.210938 C 274.726562 404.03125 272.378906 398.175781 272.171875 391.503906 C 271.890625 381.953125 275.050781 373.683594 281.464844 366.640625 C 281.746094 366.339844 281.90625 365.898438 282.234375 365.386719 C 258.785156 354.511719 236.082031 342.359375 213.960938 328.648438 C 212.171875 330.902344 211.171875 333.363281 210.707031 336.105469 C 209.289062 344.472656 210.382812 352.769531 211.683594 361.015625 C 213.496094 372.378906 216.914062 383.140625 223.070312 393.0625 C 226.183594 398.082031 230.273438 400.777344 235.804688 402.148438 C 246.703125 404.84375 257.4375 408.234375 268.5 410.582031 C 264.574219 410.792969 260.667969 411.394531 256.765625 410.328125 C 249.886719 408.421875 243.007812 406.421875 236.058594 404.773438 C 229.949219 403.332031 223.675781 402.566406 217.402344 402.242188 C 202.273438 401.449219 187.585938 403.496094 173.714844 410.003906 C 171.691406 410.953125 171.644531 410.910156 168.742188 410.746094 C 173.832031 405.261719 186.914062 401.589844 210.730469 399.171875 C 200.902344 397.222656 192.046875 396.804688 183.078125 398.082031 C 172.414062 399.589844 162.839844 403.796875 153.867188 409.5625 C 152.359375 410.535156 151.058594 411.511719 148.6875 410.398438 C 164.605469 398.175781 182.195312 393.15625 201.949219 394.710938 C 201.179688 394.363281 200.414062 393.898438 199.601562 393.644531 C 188.957031 390.4375 178.570312 386.4375 168.019531 382.929688 C 159.308594 380.027344 150.359375 380.421875 141.644531 383.347656 C 129.933594 387.300781 119.5 393.339844 111.367188 402.867188 C 109.554688 404.984375 108.113281 407.375 106.417969 409.582031 C 105.140625 411.257812 103.257812 411.535156 102.027344 410.1875 C 95.171875 402.730469 86.15625 399.3125 76.722656 396.988281 C 63.105469 393.597656 49.417969 394.457031 35.777344 397.246094 C 28.597656 398.707031 21.625 400.847656 14.863281 403.703125 C 10.632812 405.515625 7.148438 408.375 3.3125 410.953125 C 2.382812 409.722656 2.335938 408.515625 3.5 407.863281 C 8.613281 405.097656 10.167969 399.753906 12.304688 395.105469 C 18.347656 381.976562 21.113281 368.058594 19.554688 353.605469 C 18.183594 341.078125 13.722656 329.738281 4.242188 320.886719 C 2.082031 318.863281 1.988281 317.515625 4.082031 315.402344 C 14.675781 304.597656 19.882812 291.28125 22.113281 276.597656 C 24.550781 260.609375 25.0625 244.527344 24.320312 228.355469 C 23.925781 220.011719 23.667969 211.648438 23.042969 203.328125 C 21.554688 182.855469 19.207031 162.5 15.699219 142.28125 C 14.792969 137.101562 13.351562 131.941406 13.027344 126.714844 C 12.375 115.839844 8.84375 105.566406 6.890625 94.996094 Z M 294.339844 368.082031 C 294.480469 368.105469 294.617188 368.199219 294.757812 368.246094 C 319.761719 379.074219 345.183594 388.761719 371.1875 396.917969 C 374.625 398.894531 378.507812 399.3125 382.292969 400.171875 C 379.457031 398.152344 376.25 397.082031 372.976562 396.128906 C 343.117188 384.070312 314.601562 369.265625 286.765625 352.699219 C 286.765625 354.371094 286.789062 355.535156 286.765625 356.695312 C 286.625 362.273438 288.25 366.664062 294.363281 368.058594 Z M 16.140625 313.660156 C 27.015625 306.105469 33.964844 295.671875 38.078125 283.242188 C 41.191406 273.855469 42.398438 264.117188 43.097656 254.335938 C 43.957031 242.4375 42.5625 230.679688 39.75 219.128906 C 38.285156 213.179688 36.007812 207.441406 34.289062 201.539062 C 30.175781 187.363281 26.15625 173.164062 22.113281 158.96875 C 22.019531 156.085938 21.230469 153.414062 19.789062 150.902344 C 19.789062 153.996094 20.066406 157.039062 20.972656 159.988281 C 21.019531 160.222656 21.113281 160.476562 21.183594 160.734375 C 21.300781 161.894531 21.367188 163.082031 21.554688 164.242188 C 24.066406 181.207031 25.503906 198.285156 26.386719 215.386719 C 26.96875 226.636719 27.550781 237.90625 27.085938 249.199219 C 26.574219 262.234375 25.761719 275.226562 22.296875 287.890625 C 20.066406 296.023438 16.792969 303.644531 11.5625 310.3125 C 9.5625 312.871094 7.566406 315.402344 5.171875 318.445312 C 9.65625 317.5625 13.027344 315.84375 16.140625 313.683594 Z M 146.199219 329.714844 C 136.558594 332.691406 127.496094 335.96875 118.105469 338.105469 C 116.085938 338.570312 115.296875 339.894531 114.667969 341.542969 C 113.503906 344.636719 114.015625 347.910156 113.621094 351.09375 C 113.179688 354.652344 114.667969 356.601562 117.757812 358.230469 C 128.214844 363.804688 139.089844 368.429688 149.988281 373.03125 C 151.523438 373.683594 152.964844 374.960938 155.007812 374.519531 C 143.390625 361.4375 142.019531 346.378906 146.199219 329.695312 Z M 142.414062 327.695312 C 132.515625 325.71875 123.496094 321.699219 115.039062 316.261719 C 106.605469 310.847656 99.84375 303.738281 94.03125 294.859375 C 92.941406 302.34375 92.035156 308.964844 90.988281 315.589844 C 90.734375 317.167969 91.082031 318.421875 91.894531 319.722656 C 96.660156 327.347656 103.375 332.503906 111.691406 335.664062 C 113.179688 336.222656 114.832031 336.523438 116.433594 336.039062 C 125.101562 333.503906 133.863281 331.179688 142.4375 327.671875 Z M 35.566406 381.90625 C 43.164062 375.5625 50.414062 369.011719 57.851562 362.644531 C 59.921875 360.855469 60.828125 358.785156 61.082031 356.253906 C 61.664062 350.398438 60.664062 344.867188 57.550781 339.824219 C 55.96875 337.246094 53.902344 335.480469 50.671875 335.015625 C 47.371094 334.527344 44.164062 333.320312 40.867188 332.714844 C 37.867188 332.179688 35.054688 330.761719 31.570312 330.761719 C 36.542969 338.640625 39.332031 346.84375 40.144531 355.953125 C 40.957031 365.105469 38.703125 373.472656 35.566406 381.90625 Z M 63.566406 357.371094 C 69.46875 353.023438 72.492188 348.214844 71.726562 341.566406 C 71.351562 338.269531 70.609375 337.570312 67.332031 337.246094 C 64.589844 336.988281 61.847656 336.828125 58.640625 336.59375 C 62.523438 342.867188 64.496094 349.351562 63.566406 357.347656 Z M 76.628906 315.472656 C 78.535156 319.816406 79.996094 323.28125 81.601562 326.695312 C 82.507812 328.601562 83.785156 330.15625 86.527344 329.578125 C 86.875 326.765625 87.246094 323.882812 87.597656 321.003906 C 87.710938 320.027344 87.527344 319.304688 86.292969 319.238281 C 82.972656 319.074219 80.089844 317.5625 76.628906 315.496094 Z M 85.085938 316.65625 C 87.96875 317.167969 88.292969 316.773438 88.570312 312.707031 C 86.179688 314.285156 83.597656 314.496094 81.042969 315.054688 C 82.390625 315.796875 83.714844 316.402344 85.085938 316.65625 Z M 74.722656 317.726562 C 72.121094 325.046875 67.636719 330.089844 60.988281 334.085938 C 65.683594 334.574219 69.425781 335.246094 73.234375 335.246094 C 74.375 335.246094 75.371094 335.132812 75.628906 333.945312 C 76.164062 331.507812 77.765625 330.066406 80.019531 329.34375 C 78.207031 325.394531 76.605469 321.839844 74.722656 317.75 Z M 75.792969 350.027344 C 78.113281 351.558594 80.832031 350.515625 83.042969 351.769531 C 83.597656 352.070312 84.503906 352.351562 84.855469 351.398438 C 85.109375 350.675781 84.945312 349.910156 84.320312 349.421875 C 82.855469 348.261719 81.34375 347.191406 79.8125 346.03125 C 78.277344 347.121094 77.046875 348.515625 75.816406 350.050781 Z M 77.648438 343.378906 C 77.324219 341.589844 76.300781 339.917969 75.488281 338.246094 C 75.210938 337.664062 74.464844 337.664062 73.933594 337.894531 C 73.582031 338.035156 73.398438 338.429688 73.605469 338.941406 C 74.699219 341.589844 74.140625 344.355469 74.558594 347.238281 C 75.464844 345.703125 78 345.402344 77.648438 343.378906 Z M 65.125 360.34375 C 71.167969 359.972656 77.140625 359.949219 87.269531 364.96875 C 87.617188 364.222656 87.15625 363.550781 87.085938 362.851562 C 86.226562 355.113281 85.875 354.417969 77.070312 353.164062 C 76.347656 353.070312 75.582031 353.070312 74.886719 353.210938 C 73.605469 353.441406 72.144531 353.140625 71.121094 354.164062 C 69.167969 356.113281 67.261719 358.136719 65.148438 360.367188 Z M 90.152344 348.632812 C 93.078125 348.609375 94.753906 346.84375 94.613281 343.9375 C 94.359375 338.546875 87.96875 331.992188 82.667969 331.621094 C 79.671875 331.414062 77.90625 332.945312 77.765625 336.480469 C 78.324219 340.683594 81.042969 344.125 84.898438 346.75 C 86.480469 347.820312 88.175781 348.65625 90.152344 348.632812 Z M 87.410156 351.257812 C 87.851562 353.324219 88.246094 355.160156 88.828125 357.902344 C 91.777344 354.371094 94.195312 351.488281 96.773438 348.585938 C 94.078125 350.980469 90.734375 350.957031 87.410156 351.257812 Z M 102.074219 339.3125 C 104.304688 338.800781 106.675781 338.777344 109.160156 337.453125 C 101.5625 334.085938 95.566406 329.113281 90.453125 322.558594 C 88.851562 327.417969 87.78125 331.667969 92.730469 334.757812 C 93.195312 335.0625 93.683594 335.574219 93.871094 336.082031 C 95.378906 340.3125 98.703125 340.082031 102.074219 339.3125 Z M 91.429688 292.558594 C 83.019531 295.835938 75.164062 295.253906 66.636719 290.328125 C 69.261719 297.023438 71.167969 302.808594 73.792969 308.269531 C 75.929688 312.730469 84.550781 313.566406 88.222656 310.128906 C 89.011719 309.382812 89.617188 308.40625 89.6875 307.476562 C 90.011719 302.597656 91.429688 297.8125 91.429688 292.582031 Z M 64.707031 292.535156 C 59.082031 308.871094 51.136719 322.375 34.058594 327.71875 C 34.5 328.34375 35.101562 328.71875 35.824219 328.902344 C 40.773438 330.089844 45.792969 331.042969 50.671875 332.480469 C 55.203125 333.804688 58.945312 332.414062 62.59375 330.019531 C 67.285156 326.929688 70.308594 322.488281 72.167969 317.285156 C 72.957031 315.078125 72.839844 312.824219 71.839844 310.5 C 69.425781 304.875 67.285156 299.136719 64.707031 292.558594 Z M 43.003906 380.421875 C 61.175781 376.378906 78.578125 377.144531 94.730469 389.273438 C 93.195312 383.976562 91.617188 379.445312 90.59375 374.796875 C 89.546875 370.148438 86.457031 367.59375 82.578125 365.664062 C 78.046875 363.386719 73.117188 362.550781 68.121094 362.691406 C 63.871094 362.808594 59.898438 363.738281 56.597656 367.105469 C 52.832031 370.964844 48.511719 374.285156 44.46875 377.886719 C 43.816406 378.46875 42.769531 378.910156 43.003906 380.421875 Z M 111.414062 357.902344 C 108.71875 356.324219 106.582031 355.113281 104.464844 353.8125 C 98.539062 350.164062 98.5625 350.164062 93.941406 355.671875 C 92.707031 357.136719 91.59375 358.625 90.78125 360.367188 C 90.269531 361.460938 89.875 362.503906 90.222656 363.714844 C 91.40625 367.988281 92.59375 372.289062 93.984375 377.375 C 98.402344 369.105469 103.910156 362.761719 111.4375 357.902344 Z M 111.902344 340.105469 C 106.765625 340.777344 102.097656 342.03125 97.078125 342.335938 C 97.007812 344.125 96.890625 345.425781 98.097656 346.402344 C 102.003906 349.609375 106.253906 352.210938 111.113281 354.558594 C 111.042969 349.304688 111.414062 344.703125 111.902344 340.082031 Z M 95.242188 267.929688 C 82.832031 274.714844 70.980469 273.550781 58.363281 266.765625 C 60.59375 273.179688 62.453125 278.523438 64.289062 283.890625 C 64.636719 284.890625 65.195312 285.679688 65.960938 286.425781 C 71.632812 292.027344 82.625 293.839844 89.757812 290.375 C 91.152344 289.703125 92.335938 288.957031 92.570312 287.308594 C 93.453125 280.988281 94.335938 274.667969 95.265625 267.929688 Z M 96.195312 261.445312 C 96.703125 257.679688 97.308594 253.914062 97.867188 250.152344 C 98.402344 246.503906 98.914062 242.855469 99.492188 238.882812 C 81.414062 249.78125 60.058594 246.246094 44.445312 223.148438 C 43.980469 224.730469 44.558594 225.796875 44.933594 226.890625 C 48.417969 237.464844 51.972656 248.011719 55.410156 258.609375 C 56.226562 261.121094 57.828125 262.910156 59.875 264.441406 C 63.964844 267.554688 68.773438 268.972656 73.699219 269.648438 C 80.507812 270.578125 87.132812 269.808594 93.148438 265.976562 C 94.890625 264.859375 95.890625 263.464844 96.195312 261.421875 Z M 97.679688 235.953125 C 74.863281 234.511719 56.363281 224.707031 40.84375 208.160156 C 40.75 208.929688 40.539062 209.417969 40.679688 209.742188 C 45.351562 220.5 51.207031 230.398438 61.40625 236.835938 C 72.304688 243.714844 83.621094 244.179688 95.148438 238.300781 C 96.261719 237.742188 97.355469 237.117188 97.65625 235.953125 Z M 9.9375 319.910156 C 15.675781 322.769531 21.554688 324.441406 27.386719 326.277344 C 27.78125 326.394531 28.269531 326.371094 28.6875 326.277344 C 35.148438 324.789062 41.328125 322.769531 46.441406 318.167969 C 53.019531 312.21875 57.457031 304.875 60.546875 296.71875 C 62.082031 292.652344 63.105469 288.261719 61.640625 283.914062 C 56.992188 270.183594 52.25 256.496094 47.441406 242.832031 C 47 241.601562 47.070312 239.949219 45.746094 239.324219 C 46.464844 254.566406 45.304688 269.765625 40.445312 284.355469 C 35.21875 300.089844 25.785156 312.589844 9.960938 319.910156 Z M 28.175781 387.507812 C 41.886719 371.101562 40.074219 345.496094 28.109375 330.878906 C 27.457031 330.089844 26.828125 329.042969 25.96875 328.71875 C 21.066406 326.929688 16.09375 325.324219 10.355469 323.417969 C 18.71875 335.316406 22.578125 347.703125 22.460938 361.480469 C 22.320312 375.054688 18.742188 387.695312 13.28125 400.011719 C 18.464844 395.898438 23.925781 392.574219 28.15625 387.507812 Z M 99.402344 403.960938 C 97.9375 398.847656 96.867188 394.597656 93.3125 391.574219 C 90.964844 389.578125 88.527344 387.71875 85.738281 386.371094 C 71.746094 379.539062 57.316406 379.445312 42.515625 383.300781 C 33.382812 385.671875 27.898438 393.039062 20.742188 398.175781 C 47.441406 390.785156 73.769531 387.949219 99.378906 403.960938 Z M 155.519531 378.167969 C 141.738281 372.402344 128.796875 367.058594 116.480469 360.390625 C 115.0625 359.625 113.925781 359.554688 112.4375 360.460938 C 104.90625 365.039062 99.585938 371.429688 96.195312 379.492188 C 95.566406 380.957031 95.402344 382.417969 95.984375 384.140625 C 98.191406 390.621094 100.144531 397.222656 102.210938 403.75 C 102.675781 405.214844 102.980469 406.796875 104.375 407.910156 C 116.644531 390.203125 133.582031 380.792969 155.519531 378.191406 Z M 158.910156 373.9375 C 155.796875 365.480469 154.496094 356.789062 155.195312 347.84375 C 155.9375 338.5 159.539062 330.34375 166.09375 322.675781 C 161.234375 324.394531 157.03125 325.976562 152.753906 327.347656 C 150.800781 327.972656 149.476562 328.949219 148.828125 330.972656 C 148.292969 332.644531 147.640625 334.246094 147.292969 335.992188 C 146.085938 342.265625 146.363281 348.515625 147.546875 354.71875 C 149.011719 362.386719 152.589844 368.917969 158.910156 373.960938 Z M 280.628906 349.515625 C 281.605469 351.28125 282.441406 352.839844 283.8125 355.324219 C 283.859375 352.179688 282.796875 350.242188 280.628906 349.515625 Z M 197.484375 264.792969 C 229.042969 284.683594 255.417969 309.964844 275.75 341.359375 C 277.46875 344.007812 279.816406 345.402344 282.859375 347.144531 C 282.859375 345.449219 283 344.261719 282.859375 343.125 C 279.746094 321.535156 275.65625 300.160156 268.988281 279.316406 C 263.96875 263.628906 257.949219 248.410156 249.234375 234.398438 C 244.726562 227.167969 239.59375 220.382812 232.320312 215.574219 C 224.046875 210.113281 216.238281 211.019531 209.476562 218.269531 C 207.152344 220.757812 205.292969 223.566406 203.714844 226.542969 C 198.554688 236.230469 196.277344 246.804688 194.140625 257.449219 C 193.464844 260.792969 194.371094 262.816406 197.507812 264.792969 Z M 197.042969 284.496094 C 216.050781 300.648438 235.6875 315.960938 256.347656 329.949219 C 261.015625 333.109375 265.710938 336.246094 270.382812 339.382812 C 270.589844 339.128906 270.777344 338.894531 270.984375 338.640625 C 250.492188 308.734375 224.605469 284.496094 193.558594 265.210938 C 192.1875 268.089844 192.488281 270.648438 192.257812 273.109375 C 191.605469 279.917969 191.699219 279.917969 197.042969 284.472656 Z M 191.257812 309.175781 C 191.257812 310.59375 191.980469 311.21875 193.023438 311.894531 C 199.648438 316.167969 206.222656 320.5625 212.871094 324.8125 C 229.390625 335.386719 246.5625 344.84375 264.039062 353.722656 C 270.660156 357.089844 277.421875 360.179688 285.089844 363.851562 C 282.675781 358.042969 280.117188 353.628906 277.632812 349.191406 C 276.332031 346.867188 274.679688 345.007812 272.332031 343.566406 C 262.503906 337.453125 252.953125 330.925781 243.542969 324.210938 C 226.484375 312.03125 210.035156 299.089844 194.164062 285.378906 C 193.464844 284.773438 192.929688 283.636719 191.257812 284.355469 C 191.257812 292.535156 191.28125 300.855469 191.234375 309.175781 Z M 187.515625 313.472656 C 183.171875 315.496094 178.847656 317.492188 174.691406 319.957031 C 167.90625 323.929688 163.257812 329.296875 160.398438 336.546875 C 157.191406 344.726562 156.890625 353.140625 158.308594 361.574219 C 159.238281 367.011719 160.585938 372.472656 164.023438 377.097656 C 165 378.421875 166.046875 379.492188 167.671875 380.09375 C 185.125 386.417969 202.738281 392.132812 220.492188 397.546875 C 221.28125 397.777344 222.117188 398.199219 223.070312 397.523438 C 217.46875 389.714844 213.890625 381.023438 211.40625 371.777344 C 209.105469 363.25 207.964844 354.558594 207.640625 345.820312 C 207.410156 339.617188 207.429688 333.15625 211.871094 327.417969 C 204.804688 322.769531 197.972656 318.308594 191.1875 313.730469 C 189.910156 312.871094 188.863281 312.871094 187.539062 313.496094 Z M 156.773438 247.085938 C 167.554688 257.75 177.964844 267.742188 189.398438 277.710938 C 189.679688 273.621094 189.585938 270.367188 190.328125 267.207031 C 190.933594 264.605469 190.144531 262.957031 187.65625 261.609375 C 181.105469 258.050781 174.574219 254.472656 167.789062 251.359375 C 164.417969 249.828125 161.074219 248.128906 156.75 247.0625 Z M 105.257812 234.816406 C 112.019531 247.128906 177.851562 304.597656 188.933594 307.898438 C 188.933594 299.578125 188.863281 291.375 188.980469 283.148438 C 189.003906 281.3125 188.308594 280.222656 187.003906 279.082031 C 177.339844 270.53125 167.671875 261.933594 158.84375 252.523438 C 153.148438 246.433594 146.757812 242.390625 138.554688 240.460938 C 127.703125 237.90625 116.898438 235.394531 105.234375 234.792969 Z M 104.652344 242.484375 C 108.507812 257.5625 116.203125 270.578125 126.378906 282.171875 C 137.554688 294.882812 151.476562 304.0625 166.183594 312.148438 C 168.765625 313.566406 171.574219 314.402344 174.386719 315.238281 C 175.410156 315.542969 176.269531 315.65625 177.316406 315.148438 C 180.335938 313.707031 183.425781 312.40625 187.027344 310.824219 C 156.984375 289.515625 129.515625 265.882812 104.535156 238.929688 C 104.1875 240.507812 104.398438 241.460938 104.652344 242.460938 Z M 100.957031 245.597656 C 99.074219 258.773438 97.261719 271.949219 95.3125 285.101562 C 94.753906 288.910156 95.265625 292.304688 97.609375 295.394531 C 98.308594 296.324219 98.890625 297.347656 99.609375 298.277344 C 109.414062 311.289062 122.636719 319.191406 138.019531 323.835938 C 144.851562 325.90625 151.546875 326.023438 158.074219 322.792969 C 158.980469 322.351562 160.050781 322.234375 160.957031 321.792969 C 164.324219 320.144531 168.207031 319.65625 171.132812 317.378906 C 138.484375 301.414062 112.460938 279.453125 101.863281 242.4375 C 101.445312 243.925781 101.097656 244.761719 100.980469 245.621094 Z M 6.9375 68.015625 C 26.738281 127.96875 57.503906 181.648438 99.378906 229.378906 C 99.910156 227.679688 99.285156 226.636719 98.914062 225.519531 C 90.59375 200.214844 78.835938 176.488281 65.402344 153.601562 C 50.324219 127.921875 33.730469 103.246094 16.417969 79.03125 C 13.632812 75.125 10.65625 71.339844 7.75 67.503906 C 7.472656 67.667969 7.21875 67.851562 6.9375 68.015625 Z M 5.707031 74.21875 C 6.914062 81.914062 8.472656 89.488281 9.984375 97.085938 C 14.027344 117.464844 19.277344 137.566406 24.367188 157.691406 C 27.480469 170.003906 31.246094 182.183594 34.707031 194.40625 C 35.195312 196.125 36.007812 197.636719 37.054688 199.097656 C 48.046875 214.621094 62.730469 225.03125 80.855469 230.539062 C 86.433594 232.234375 92.082031 233.910156 98.820312 232.675781 C 88.199219 220.6875 78.601562 208.695312 69.5625 196.265625 C 60.5 183.808594 52.089844 170.957031 44.351562 157.644531 C 36.542969 144.210938 29.433594 130.433594 22.996094 116.28125 C 16.699219 102.476562 11.332031 88.324219 5.707031 74.21875 Z M 5.707031 74.21875 " fill-opacity="1" fill-rule="nonzero"/></g></g></g></svg>